<svg width="24" height="24" viewBox="0 0 24 24" fill="none" xmlns="http://www.w3.org/2000/svg">
<path fill-rule="evenodd" clip-rule="evenodd" d="M5.624 4.424C3.965 5.182 2.75 6.986 2.75 9.137C2.75 11.334 3.65 13.028 4.938 14.48C6.001 15.676 7.287 16.668 8.541 17.634C8.83967 17.864 9.13467 18.0933 9.426 18.322C9.952 18.737 10.421 19.1 10.874 19.365C11.327 19.63 11.69 19.75 12 19.75C12.31 19.75 12.674 19.63 13.126 19.365C13.579 19.1 14.048 18.737 14.574 18.322C14.8653 18.0927 15.1603 17.8637 15.459 17.635C16.713 16.667 17.999 15.676 19.062 14.48C20.351 13.028 21.25 11.334 21.25 9.137C21.25 6.987 20.035 5.182 18.376 4.424C16.764 3.687 14.598 3.882 12.54 6.021C12.47 6.09359 12.3862 6.15132 12.2934 6.19076C12.2006 6.23019 12.1008 6.25052 12 6.25052C11.8992 6.25052 11.7994 6.23019 11.7066 6.19076C11.6138 6.15132 11.53 6.09359 11.46 6.021C9.402 3.882 7.236 3.687 5.624 4.424ZM12 4.46C9.688 2.39 7.099 2.1 5 3.059C2.786 4.074 1.25 6.426 1.25 9.138C1.25 11.803 2.36 13.837 3.817 15.477C4.983 16.79 6.41 17.889 7.671 18.859C7.95767 19.079 8.233 19.293 8.497 19.501C9.01 19.905 9.56 20.335 10.117 20.661C10.674 20.987 11.31 21.251 12 21.251C12.69 21.251 13.326 20.986 13.883 20.661C14.441 20.335 14.99 19.905 15.503 19.501C15.767 19.293 16.0423 19.079 16.329 18.859C17.589 17.889 19.017 16.789 20.183 15.477C21.64 13.837 22.75 11.803 22.75 9.138C22.75 6.426 21.215 4.074 19 3.061C16.901 2.101 14.312 2.391 12 4.46Z" fill="white"/>
</svg>
